<svg xmlns="http://www.w3.org/2000/svg" xmlns:xlink="http://www.w3.org/1999/xlink" width="500" zoomAndPan="magnify" viewBox="0 0 375 374.999991" height="500" preserveAspectRatio="xMidYMid meet" version="1.0"><defs><clipPath id="dea0fd060c"><path d="M 201 6.136719 L 289 6.136719 L 289 181 L 201 181 Z M 201 6.136719 " clip-rule="nonzero"/></clipPath><clipPath id="c2b88b2976"><path d="M 84 6.136719 L 172 6.136719 L 172 181 L 84 181 Z M 84 6.136719 " clip-rule="nonzero"/></clipPath><clipPath id="b7743e80f9"><path d="M 37.5 138 L 177 138 L 177 292 L 37.5 292 Z M 37.5 138 " clip-rule="nonzero"/></clipPath><clipPath id="5c1e6ccc25"><path d="M 179 7 L 191 7 L 191 294.886719 L 179 294.886719 Z M 179 7 " clip-rule="nonzero"/></clipPath><clipPath id="32405596c4"><path d="M 140.757812 325 L 230.007812 325 L 230.007812 362.691406 L 140.757812 362.691406 Z M 140.757812 325 " clip-rule="nonzero"/></clipPath></defs><path fill="#ffffff" d="M 230.484375 217.742188 C 230.484375 217.742188 230.480469 217.742188 230.480469 217.742188 L 230.476562 217.742188 C 230.476562 217.742188 230.480469 217.742188 230.480469 217.742188 Z M 306.296875 218.457031 C 306.296875 218.46875 306.296875 218.488281 306.296875 218.511719 L 306.292969 218.511719 C 306.289062 218.484375 306.289062 218.46875 306.292969 218.457031 Z M 228.886719 224.097656 C 228.894531 224.101562 228.898438 224.105469 228.910156 224.113281 L 228.90625 224.113281 C 228.894531 224.105469 228.886719 224.101562 228.882812 224.097656 Z M 307.824219 139.046875 C 306.132812 139.046875 304.507812 139.15625 303.433594 139.398438 C 297.636719 140.707031 293.242188 144.644531 291.859375 149.878906 C 290.886719 153.5 291.46875 158.785156 293.367188 163.953125 L 293.371094 163.953125 C 293.578125 164.519531 293.722656 164.921875 293.8125 165.207031 C 286.109375 162.140625 281.421875 161.050781 275.804688 161.050781 C 275.746094 161.050781 275.65625 161.050781 275.59375 161.050781 L 275.597656 161.050781 C 268.886719 161.078125 263.875 163.230469 259.953125 167.835938 C 258.324219 169.746094 255.773438 174.683594 255.066406 177.351562 L 254.570312 179.144531 C 254.519531 179.324219 254.574219 179.515625 254.710938 179.640625 L 256.429688 181.1875 C 259.117188 183.695312 261.226562 187.339844 262.144531 191.039062 C 262.328125 191.824219 262.492188 193.738281 262.519531 195.246094 L 262.519531 198.058594 C 262.519531 198.226562 262.601562 198.378906 262.738281 198.46875 L 263.707031 199.105469 C 265.289062 200.183594 268.867188 203.757812 270.078125 205.457031 C 278.203125 216.90625 275.472656 231.34375 264.726562 238.96875 C 263.191406 240.054688 261.492188 241.007812 259.636719 241.789062 C 257.425781 242.71875 253.875 243.726562 251.882812 243.96875 L 251.875 243.96875 C 250.550781 244.160156 249.988281 244.269531 249.773438 245.296875 C 248.789062 249.636719 247.570312 252.539062 245.3125 255.796875 C 242.738281 259.484375 238.1875 263.273438 233.921875 265.199219 L 233.917969 265.203125 C 233.363281 265.457031 232.875 265.664062 232.5625 265.789062 C 232.054688 264.558594 230.566406 260.652344 230.222656 259.632812 L 230.21875 259.632812 C 230.421875 259.484375 230.828125 259.234375 231.351562 258.980469 L 231.359375 258.976562 C 240.464844 254.355469 245.277344 244.695312 242.5625 236.039062 C 240.957031 230.847656 236.332031 226.625 230.183594 224.621094 L 230.175781 224.621094 C 229.710938 224.476562 229.328125 224.324219 229.105469 224.21875 L 229.101562 224.21875 C 229.332031 223.027344 230.34375 218.851562 230.679688 217.761719 L 230.683594 217.757812 C 231.863281 217.945312 236.042969 219.515625 238.039062 220.621094 C 243.285156 223.601562 247.628906 229.21875 249.285156 235.261719 L 249.285156 235.269531 L 249.785156 237.011719 C 249.84375 237.222656 250.039062 237.367188 250.253906 237.367188 C 250.28125 237.367188 250.304688 237.363281 250.328125 237.363281 L 251.433594 237.195312 L 251.4375 237.195312 C 253.84375 236.828125 256.074219 236.089844 258.597656 234.886719 C 260.726562 233.890625 261.683594 233.195312 263.324219 231.582031 L 263.328125 231.578125 C 266.796875 228.109375 268.265625 224.351562 267.980469 219.664062 C 267.554688 213.011719 262.777344 206.324219 255.753906 202.363281 L 254.648438 201.734375 L 254.941406 200.199219 C 255.480469 197.507812 255.425781 193.179688 254.855469 190.886719 C 254.191406 188.207031 252.464844 185.710938 250.398438 184.46875 L 250.394531 184.46875 C 248.347656 183.257812 247.207031 182.960938 244.613281 182.960938 C 240.628906 182.960938 236.738281 184.484375 232.667969 187.542969 C 231.140625 188.683594 230.703125 188.910156 230.53125 188.910156 C 228.246094 187.324219 225.691406 185.890625 223.976562 185.261719 L 223.976562 185.257812 C 222.296875 184.640625 221.582031 184.507812 219.101562 184.507812 C 218.824219 184.507812 218.511719 184.507812 218.1875 184.511719 L 218.191406 184.507812 C 214.988281 184.511719 214.28125 184.59375 212.5625 185.261719 C 208.339844 186.878906 204.636719 189.878906 202.011719 193.832031 C 193.929688 205.96875 195.648438 222.363281 206.167969 234.785156 L 206.167969 234.789062 C 206.914062 235.660156 207.304688 236.253906 207.40625 236.503906 L 207.402344 236.503906 C 207.167969 236.816406 206.535156 237.621094 205.835938 238.4375 C 202.5625 242.300781 199.570312 247.472656 197.972656 251.984375 C 192.1875 268.382812 198.730469 285.210938 212.871094 290.199219 L 212.871094 290.195312 C 213.164062 290.300781 213.457031 290.398438 213.757812 290.492188 C 215.296875 290.964844 217.789062 291.191406 220.191406 291.191406 C 222.363281 291.191406 224.539062 291.003906 225.933594 290.605469 L 225.9375 290.605469 C 230.855469 289.144531 235.816406 286.28125 239.742188 282.636719 L 241.65625 280.871094 L 242.980469 281.328125 L 242.984375 281.328125 C 247.394531 282.863281 249.601562 283.316406 253.722656 283.457031 C 254.769531 283.5 255.582031 283.523438 256.261719 283.523438 C 257.875 283.523438 258.738281 283.386719 260.167969 283.027344 C 266.238281 281.496094 270.28125 278.105469 273.027344 272.304688 C 274.976562 268.203125 275.398438 265.828125 275.398438 259.175781 C 275.398438 256.46875 275.441406 254.875 275.515625 254.183594 L 275.519531 254.179688 C 277.609375 254.824219 281.230469 255.171875 284.488281 255.171875 C 286.714844 255.171875 288.839844 255.011719 290.246094 254.640625 C 297.367188 252.777344 302.855469 247.996094 305.761719 241.191406 L 305.765625 241.191406 C 308.164062 235.511719 308.546875 227.628906 306.753906 220.570312 C 306.558594 219.800781 306.410156 219.15625 306.335938 218.796875 L 306.332031 218.792969 C 306.710938 218.644531 307.386719 218.382812 308.136719 218.109375 L 308.140625 218.105469 C 318.023438 214.355469 325.503906 207.574219 330.347656 197.921875 C 339.734375 179.199219 335.746094 152.246094 321.960938 143.09375 C 319.59375 141.515625 317.890625 140.722656 314.753906 139.769531 C 313.230469 139.296875 310.382812 139.046875 307.824219 139.046875 Z M 307.824219 139.046875 " fill-opacity="1" fill-rule="nonzero"/><g clip-path="url(#dea0fd060c)"><path fill="#ffffff" d="M 230.023438 5.890625 C 228.0625 5.890625 226.089844 6.078125 224.597656 6.46875 L 224.59375 6.46875 C 217.148438 8.421875 210.714844 14.265625 206.65625 22.636719 L 206.652344 22.636719 C 200.121094 36.148438 201.761719 52.65625 210.972656 66.640625 L 210.980469 66.648438 C 211.703125 67.730469 212.285156 68.660156 212.511719 69.058594 L 212.507812 69.058594 C 212.273438 69.390625 211.722656 70.09375 211.058594 70.898438 C 206.613281 76.324219 203.699219 82.289062 202.328125 88.816406 C 201.484375 92.839844 201.484375 98.9375 202.328125 102.960938 C 204.007812 110.980469 208.074219 118.066406 214.613281 124.378906 L 216.46875 126.191406 L 213.996094 128.6875 C 208.265625 134.503906 204.511719 141.050781 202.527344 148.746094 C 201.40625 153.003906 201.152344 155.652344 201.320312 160.617188 C 201.542969 167.023438 202.699219 171.414062 205.609375 177.066406 C 206.40625 178.597656 206.859375 179.453125 207.4375 179.667969 C 207.523438 179.699219 207.613281 179.71875 207.703125 179.726562 L 207.703125 179.722656 C 207.726562 179.726562 207.753906 179.726562 207.777344 179.726562 C 207.859375 179.726562 207.9375 179.71875 208.007812 179.703125 C 208.378906 179.640625 209.75 179.242188 211.023438 178.859375 C 213.597656 178.101562 216.332031 177.722656 219.027344 177.722656 C 222.3125 177.722656 225.523438 178.285156 228.300781 179.398438 L 229.988281 180.0625 C 230.046875 180.085938 230.109375 180.097656 230.167969 180.097656 C 230.25 180.097656 230.328125 180.078125 230.402344 180.039062 L 232.476562 178.933594 L 232.480469 178.929688 C 235.0625 177.519531 237.800781 176.570312 240.585938 176.164062 C 241.421875 176.042969 242.546875 175.984375 243.664062 175.984375 C 245.300781 175.984375 246.769531 176.113281 247.253906 176.300781 L 247.257812 176.304688 C 247.265625 176.304688 247.28125 176.3125 247.289062 176.3125 C 247.371094 176.34375 247.460938 176.363281 247.566406 176.363281 C 247.78125 176.363281 247.960938 176.277344 248.101562 176.148438 C 248.425781 175.851562 248.664062 175.199219 248.953125 174.28125 C 253.085938 161.714844 263.363281 154.0625 276.082031 154.0625 C 276.113281 154.0625 276.121094 154.0625 276.148438 154.0625 C 278.023438 154.089844 278.96875 154.171875 283.222656 154.75 L 284.652344 154.972656 C 284.679688 154.976562 284.703125 154.976562 284.726562 154.976562 C 284.84375 154.976562 284.957031 154.9375 285.046875 154.859375 C 285.15625 154.765625 285.21875 154.628906 285.21875 154.484375 L 285.21875 153.101562 C 285.21875 150.476562 286.21875 146.433594 287.542969 143.78125 L 288.207031 142.480469 C 288.28125 142.339844 288.28125 142.167969 288.203125 142.027344 C 288.128906 141.886719 287.992188 141.789062 287.832031 141.769531 L 286.503906 141.605469 C 280.863281 140.839844 274.40625 137.972656 270.8125 134.648438 L 270.808594 134.644531 L 269.566406 133.511719 C 269.472656 133.425781 269.351562 133.382812 269.234375 133.382812 C 269.109375 133.382812 268.980469 133.433594 268.882812 133.53125 L 267.167969 135.273438 C 262.972656 139.46875 257.519531 141.734375 251.90625 141.734375 C 250.597656 141.734375 249.28125 141.609375 247.96875 141.359375 C 245.691406 140.925781 242.839844 139.890625 241.183594 138.902344 L 241.179688 138.902344 C 240.585938 138.554688 239.964844 138.246094 239.738281 138.171875 L 239.734375 138.171875 C 239.71875 138.167969 239.640625 138.140625 239.546875 138.140625 C 239.3125 138.140625 239.148438 138.320312 239.152344 138.320312 C 238.921875 138.546875 238.375 139.355469 237.855469 140.234375 L 237.851562 140.242188 C 235.488281 144.3125 231.574219 148.035156 227.734375 149.980469 L 226.328125 150.683594 L 226.28125 150.566406 L 226.28125 150.5625 C 226.136719 150.1875 225.53125 148.648438 224.898438 147.085938 L 224.894531 147.078125 C 224.433594 145.953125 224.054688 144.964844 223.882812 144.496094 L 223.878906 144.496094 C 224.128906 144.328125 224.585938 144.058594 225.152344 143.738281 L 225.160156 143.734375 C 226.066406 143.207031 227.785156 141.820312 228.96875 140.613281 L 228.96875 140.609375 C 230.722656 138.859375 231.390625 137.898438 232.410156 135.777344 L 232.410156 135.773438 C 233.960938 132.558594 234.589844 129.859375 234.589844 126.515625 C 234.589844 121.179688 232.789062 116.960938 228.882812 113.054688 L 226.765625 110.9375 L 228.582031 108.285156 C 229.457031 107.027344 230.234375 105.964844 230.585938 105.519531 L 230.589844 105.515625 C 231.460938 106.058594 234.128906 108.414062 235.292969 109.863281 C 239.398438 114.949219 241.355469 120.511719 241.355469 127.207031 L 241.355469 130.582031 C 241.355469 130.738281 241.429688 130.886719 241.554688 130.980469 L 242.46875 131.644531 C 243.96875 132.792969 246.792969 134.089844 248.703125 134.546875 C 249.851562 134.816406 250.984375 134.949219 252.097656 134.949219 C 255.957031 134.949219 259.53125 133.332031 262.613281 130.207031 C 263.777344 129.019531 264.539062 128.132812 264.652344 127.578125 C 264.671875 127.476562 264.683594 127.351562 264.644531 127.214844 L 264.636719 127.191406 C 264.550781 126.933594 264.109375 125.664062 263.640625 124.359375 C 262.257812 120.433594 261.992188 115.984375 262.921875 112.644531 C 263.179688 111.875 262.722656 111.429688 262.105469 111.046875 L 262.097656 111.042969 C 260.625 110.175781 257.71875 107.273438 256.476562 105.386719 L 256.472656 105.382812 C 252.425781 99.308594 251.761719 90.546875 254.859375 82.960938 L 254.863281 82.957031 L 255.527344 81.296875 C 255.582031 81.15625 255.570312 80.996094 255.492188 80.867188 C 255.414062 80.734375 255.28125 80.648438 255.128906 80.628906 L 253.996094 80.488281 C 249.90625 79.992188 248.394531 79.71875 246.394531 79.070312 L 246.390625 79.070312 C 237.078125 76.136719 231.148438 69.34375 229.492188 59.730469 C 229.242188 58.289062 229.054688 56.75 229.054688 56.300781 C 229.054688 55.105469 228.605469 54.917969 227.050781 54.34375 C 222.480469 52.625 217.648438 47.964844 215.457031 43.148438 C 214.839844 41.785156 214.308594 40.164062 214.179688 39.503906 L 214.175781 39.503906 C 215.28125 39.191406 218.976562 38.253906 220.253906 37.996094 C 220.421875 37.960938 220.519531 37.941406 220.582031 37.9375 L 220.585938 37.9375 C 220.636719 38.035156 220.710938 38.265625 220.871094 38.859375 C 221.710938 42.128906 224.601562 45.664062 227.753906 47.328125 L 227.757812 47.328125 C 230.039062 48.523438 232.546875 49.101562 235.105469 49.101562 C 239.820312 49.101562 244.695312 47.136719 248.652344 43.4375 L 248.652344 43.433594 L 249.6875 42.484375 L 251.597656 44.085938 L 251.601562 44.085938 C 252.84375 45.136719 254.09375 46.28125 254.433594 46.644531 L 254.4375 46.652344 L 254.734375 46.957031 L 253.070312 48.527344 C 250.757812 50.707031 248.695312 52.144531 245.667969 53.617188 C 243.351562 54.761719 239.003906 55.972656 237.390625 55.972656 C 237.03125 55.972656 236.59375 55.980469 236.269531 56.199219 C 236.152344 56.277344 236.058594 56.382812 235.984375 56.507812 L 235.984375 56.503906 C 235.859375 56.722656 235.824219 56.96875 235.824219 57.210938 C 235.824219 57.792969 236.039062 58.703125 236.390625 60.074219 C 237.773438 65.609375 240.871094 69.699219 245.3125 71.820312 C 248.515625 73.339844 250.039062 73.667969 254.152344 73.667969 C 254.324219 73.667969 254.53125 73.667969 254.710938 73.667969 L 254.710938 73.664062 L 254.714844 73.667969 C 257.953125 73.636719 259.128906 73.496094 261.390625 72.902344 C 271.605469 70.21875 280.3125 63.46875 284.230469 55.210938 L 284.230469 55.207031 C 285.675781 52.125 286.160156 49.894531 286.160156 46.503906 C 286.160156 42.855469 285.640625 40.761719 283.898438 37.160156 L 283.894531 37.15625 C 282.820312 35.003906 282.125 34.050781 280.398438 32.324219 C 276.96875 28.921875 273.316406 27.265625 268.570312 27.007812 L 268.566406 27.007812 C 268.054688 26.980469 267.59375 26.964844 267.148438 26.964844 C 265.21875 26.964844 263.746094 27.265625 260.65625 28.191406 L 260.640625 28.195312 C 260.597656 28.210938 260.570312 28.210938 260.5625 28.210938 C 260.546875 28.210938 260.429688 28.1875 260.140625 27.695312 L 260.140625 27.691406 C 257.480469 23.210938 249.96875 14.808594 245.738281 11.640625 C 242.789062 9.394531 238.472656 7.234375 235.492188 6.46875 L 235.492188 6.464844 C 233.972656 6.078125 231.984375 5.890625 230.023438 5.890625 Z M 230.023438 5.890625 " fill-opacity="1" fill-rule="nonzero"/></g><path fill="#ffffff" d="M 273.964844 107.660156 C 273.964844 107.664062 273.964844 107.664062 273.96875 107.664062 C 273.96875 107.664062 273.964844 107.664062 273.964844 107.664062 C 273.964844 107.664062 273.960938 107.664062 273.957031 107.660156 Z M 292.363281 54.3125 C 292.070312 54.3125 291.890625 54.609375 291.890625 54.625 L 291.898438 54.625 C 291.71875 54.953125 291.085938 56.277344 290.371094 57.804688 L 290.371094 57.808594 C 288.289062 62.269531 286.050781 65.511719 282.859375 68.734375 L 282.855469 68.734375 C 278.871094 72.746094 272.960938 76.441406 267.273438 78.4375 L 267.265625 78.441406 C 265.664062 79.023438 264.988281 79.488281 263.699219 80.894531 C 260.699219 84.097656 259.109375 88.742188 259.421875 93.265625 L 259.421875 93.269531 C 259.703125 97.292969 260.988281 100.472656 263.503906 103.246094 C 265.863281 105.835938 269.699219 107.585938 273.109375 107.585938 C 273.21875 107.585938 273.320312 107.589844 273.410156 107.59375 L 273.40625 107.589844 C 273.269531 107.773438 273.097656 107.984375 272.902344 108.210938 C 271.660156 109.65625 270.082031 112.652344 269.484375 114.671875 C 268.5 117.96875 269.132812 122.101562 271.007812 125.011719 C 273.101562 128.304688 277.292969 131.378906 281.792969 133.007812 C 285.175781 134.253906 288.117188 134.871094 291.292969 134.871094 C 293.976562 134.871094 296.808594 134.429688 300.203125 133.578125 L 300.203125 133.574219 C 303.597656 132.714844 306.539062 132.292969 309.226562 132.292969 C 310.46875 132.292969 311.660156 132.382812 312.816406 132.5625 L 312.820312 132.5625 C 316.308594 133.082031 318.28125 133.699219 321.871094 135.371094 L 324.496094 136.613281 C 324.5625 136.648438 324.632812 136.664062 324.707031 136.664062 C 324.84375 136.664062 324.980469 136.601562 325.078125 136.492188 L 325.796875 135.664062 L 325.800781 135.65625 C 327.042969 134.1875 328.808594 130.777344 329.570312 128.554688 L 329.570312 128.550781 C 332.566406 119.449219 329.957031 109.441406 322.625 101.855469 C 317.679688 96.742188 311.730469 93.832031 305.316406 93.40625 L 305.3125 93.40625 C 304.617188 93.367188 304 93.3125 303.5625 93.265625 L 303.558594 93.265625 C 303.726562 93.039062 303.941406 92.761719 304.175781 92.460938 L 304.175781 92.457031 C 306.964844 88.933594 308.875 84.6875 309.859375 79.945312 C 310.5625 76.585938 310.484375 71.195312 309.714844 68.371094 C 307.640625 60.871094 302.171875 56.042969 294.113281 54.625 C 293.210938 54.464844 292.460938 54.324219 292.453125 54.324219 Z M 292.363281 54.3125 " fill-opacity="1" fill-rule="nonzero"/><g clip-path="url(#c2b88b2976)"><path fill="#ffffff" d="M 112.546875 28.117188 C 112.550781 28.117188 112.546875 28.117188 112.53125 28.121094 C 112.53125 28.121094 112.527344 28.121094 112.523438 28.121094 C 112.535156 28.117188 112.539062 28.117188 112.542969 28.117188 Z M 159.191406 39.589844 C 159.195312 39.589844 159.199219 39.589844 159.203125 39.59375 C 159.277344 39.621094 159.300781 39.632812 159.292969 39.632812 C 159.28125 39.632812 159.242188 39.621094 159.1875 39.589844 Z M 118.316406 46.945312 Z M 144.183594 5.910156 C 139.332031 5.910156 134.078125 7.585938 129.253906 10.707031 C 124.738281 13.625 119.300781 18.984375 115.046875 24.628906 L 115.042969 24.632812 L 115.042969 24.636719 L 115.039062 24.636719 C 113.828125 26.277344 112.757812 27.683594 112.417969 28.113281 C 112.125 28.089844 111.527344 27.960938 110.855469 27.75 L 110.855469 27.746094 C 109.242188 27.242188 107.015625 26.976562 104.957031 26.976562 C 103.632812 26.976562 102.351562 27.085938 101.328125 27.324219 L 101.324219 27.324219 C 97.878906 28.148438 95.367188 29.609375 92.652344 32.324219 C 89.996094 34.980469 88.625 37.207031 87.496094 40.824219 L 87.496094 40.828125 C 86.949219 42.609375 86.835938 43.632812 86.835938 46.503906 C 86.835938 51.539062 87.84375 54.566406 90.992188 59.148438 C 92.605469 61.5 96.4375 65.273438 99.078125 67.15625 C 104.929688 71.300781 112.355469 73.78125 118.691406 73.78125 C 119.125 73.78125 119.550781 73.773438 119.972656 73.746094 L 119.976562 73.746094 C 128.054688 73.292969 133.570312 69.15625 136.042969 61.710938 L 136.046875 61.707031 C 136.484375 60.359375 136.9375 58.644531 137.03125 57.894531 L 137.226562 56.621094 C 137.246094 56.488281 137.210938 56.351562 137.128906 56.246094 C 137.046875 56.140625 136.921875 56.070312 136.789062 56.058594 L 134.796875 55.863281 L 134.792969 55.863281 C 132.707031 55.675781 128.921875 54.535156 126.644531 53.371094 L 126.640625 53.371094 C 123.921875 51.996094 119.292969 48.476562 118.453125 47.152344 L 118.445312 47.144531 C 118.363281 47.019531 118.332031 46.960938 118.320312 46.933594 C 118.359375 46.839844 118.546875 46.625 119.28125 45.953125 L 119.292969 45.945312 C 120 45.261719 121.238281 44.164062 122.058594 43.480469 L 122.0625 43.476562 L 123.230469 42.480469 L 124.597656 43.714844 C 128.488281 47.246094 133.308594 49.105469 137.90625 49.105469 C 140.894531 49.105469 143.792969 48.320312 146.277344 46.695312 L 146.28125 46.691406 L 146.289062 46.6875 C 147.171875 46.078125 148.292969 45.222656 148.746094 44.738281 C 149.90625 43.488281 151.492188 40.714844 152.039062 38.988281 C 152.253906 38.304688 152.371094 38.0625 152.433594 37.984375 L 152.4375 37.980469 C 152.449219 37.984375 152.464844 37.988281 152.480469 37.992188 L 152.492188 37.992188 C 154.230469 38.359375 157.679688 39.183594 158.835938 39.488281 L 158.832031 39.488281 C 158.582031 40.394531 157.777344 42.59375 157.246094 43.65625 C 154.886719 48.320312 151.289062 51.832031 146.632812 53.972656 L 146.632812 53.96875 L 144.28125 55.050781 C 144.121094 55.125 144.015625 55.277344 144 55.449219 L 143.832031 57.25 C 143.558594 59.96875 142.4375 64.226562 141.414062 66.410156 C 140.058594 69.257812 138.601562 71.257812 136.292969 73.457031 C 132.175781 77.355469 127.132812 79.558594 120.613281 80.296875 L 120.609375 80.296875 C 119.351562 80.441406 118.1875 80.597656 117.910156 80.683594 L 117.910156 80.679688 C 117.898438 80.683594 117.765625 80.722656 117.664062 80.820312 C 117.457031 81.023438 117.503906 81.316406 117.507812 81.316406 C 117.539062 81.621094 117.765625 82.214844 118.003906 82.75 L 118.003906 82.753906 C 119.488281 86.097656 120.28125 91.515625 119.875 95.5625 C 119.277344 101.636719 116.40625 106.898438 111.964844 110.183594 L 110.113281 111.539062 C 109.957031 111.652344 109.882812 111.84375 109.921875 112.03125 L 110.140625 113.136719 C 110.242188 113.710938 110.355469 115.757812 110.355469 117.746094 C 110.355469 121.449219 109.839844 123.832031 108.582031 126.320312 L 108.035156 127.332031 C 107.929688 127.523438 107.964844 127.757812 108.117188 127.910156 L 110.414062 130.234375 L 110.414062 130.238281 C 113.644531 133.464844 116.917969 134.972656 120.941406 134.972656 C 123.878906 134.972656 127.433594 133.773438 130.242188 131.84375 L 130.246094 131.839844 L 131.542969 130.929688 C 131.691406 130.828125 131.769531 130.65625 131.75 130.480469 L 131.558594 128.460938 C 131.070312 123.113281 132.914062 116.585938 136.285156 111.664062 C 137.824219 109.449219 141.359375 106.027344 142.40625 105.441406 L 142.410156 105.4375 C 142.550781 105.644531 142.777344 105.976562 143.070312 106.40625 C 143.449219 106.960938 143.90625 107.628906 144.414062 108.367188 L 146.277344 111.078125 L 145.738281 111.488281 C 140.398438 115.578125 137.558594 122.335938 138.410156 128.875 L 138.414062 128.878906 C 138.808594 131.667969 139.765625 134.664062 141.015625 136.855469 L 141.019531 136.859375 C 142.332031 139.144531 145.433594 142.304688 147.671875 143.59375 C 148.332031 144 148.835938 144.34375 149.089844 144.542969 L 149.085938 144.542969 C 148.851562 145.113281 148.335938 146.386719 147.765625 147.800781 L 146.601562 150.648438 L 146.070312 150.414062 L 146.070312 150.410156 C 141.804688 148.496094 137.402344 144.371094 134.929688 139.972656 C 134.53125 139.242188 134.097656 138.558594 133.917969 138.347656 C 133.925781 138.347656 133.753906 138.140625 133.503906 138.140625 C 133.40625 138.140625 133.320312 138.171875 133.3125 138.175781 C 133.066406 138.257812 132.058594 138.75 130.960938 139.300781 L 130.957031 139.300781 C 127.460938 141.0625 125.210938 141.601562 121.082031 141.601562 C 118.492188 141.601562 117.050781 141.460938 115.816406 141.121094 C 112.082031 140.089844 107.765625 137.535156 105.289062 134.84375 L 104.152344 133.597656 C 104.054688 133.492188 103.921875 133.4375 103.789062 133.4375 C 103.679688 133.4375 103.570312 133.472656 103.480469 133.546875 L 101.324219 135.289062 L 101.320312 135.292969 C 97.683594 138.25 92.867188 140.402344 87.792969 141.332031 L 87.789062 141.332031 C 86.5625 141.558594 85.40625 141.816406 85.140625 141.917969 C 85.132812 141.921875 85.019531 141.960938 84.933594 142.046875 C 84.664062 142.316406 84.8125 142.675781 84.824219 142.710938 C 84.882812 142.867188 84.984375 143.023438 85.101562 143.15625 C 85.996094 144.269531 87.421875 149.101562 87.695312 152.339844 L 87.695312 152.34375 L 87.890625 154.5 C 87.902344 154.636719 87.972656 154.761719 88.078125 154.847656 C 88.167969 154.914062 88.273438 154.949219 88.378906 154.949219 C 88.40625 154.949219 88.433594 154.945312 88.460938 154.941406 L 89.457031 154.777344 L 89.457031 154.773438 C 92.070312 154.339844 94.574219 154.121094 96.90625 154.121094 C 99.121094 154.121094 101.171875 154.320312 102.992188 154.714844 L 102.996094 154.714844 C 112.832031 156.808594 120.035156 163.347656 123.691406 173.519531 C 124.207031 174.953125 124.550781 175.824219 125.015625 176.132812 C 125.164062 176.230469 125.328125 176.285156 125.503906 176.285156 C 125.542969 176.285156 125.582031 176.28125 125.617188 176.277344 L 125.621094 176.277344 L 125.628906 176.273438 C 126.917969 176.101562 128.171875 176.015625 129.386719 176.015625 C 133.566406 176.019531 137.335938 177.027344 140.75 179.058594 C 141.699219 179.628906 142.261719 179.960938 142.824219 179.960938 C 143.128906 179.960938 143.402344 179.863281 143.671875 179.757812 L 143.675781 179.757812 C 146.894531 178.441406 150.632812 177.703125 154.074219 177.703125 C 154.960938 177.703125 155.824219 177.753906 156.65625 177.851562 L 156.660156 177.855469 C 159.371094 178.15625 162.753906 178.949219 164.355469 179.617188 L 164.359375 179.617188 L 165.246094 179.980469 C 165.304688 180.003906 165.367188 180.015625 165.429688 180.015625 C 165.605469 180.015625 165.769531 179.921875 165.859375 179.761719 L 166.964844 177.773438 C 168.566406 174.933594 170.023438 171.097656 170.886719 167.4375 L 170.890625 167.433594 C 171.535156 164.617188 171.621094 163.6875 171.621094 159.105469 C 171.621094 154.890625 171.511719 153.4375 171 151.089844 C 169.042969 141.976562 164.761719 134.253906 158.136719 127.851562 L 158.136719 127.847656 L 156.433594 126.214844 L 158.019531 124.746094 L 158.019531 124.742188 C 161.824219 121.21875 165.457031 116.328125 167.589844 111.84375 C 174.125 98.210938 171.8125 82.707031 161.492188 70.425781 L 160.371094 69.074219 L 161.660156 67.140625 C 163.789062 63.976562 166.550781 58.207031 167.726562 54.480469 L 167.726562 54.476562 C 168.257812 52.742188 168.980469 49.734375 169.316406 47.777344 L 169.320312 47.773438 C 169.824219 44.636719 169.90625 43.46875 169.765625 38.746094 C 169.65625 34.277344 169.488281 32.800781 168.925781 30.347656 L 168.925781 30.34375 C 167.082031 22.609375 163.96875 16.84375 159.183594 12.3125 C 155.671875 8.996094 152.4375 7.203125 148.214844 6.324219 C 146.914062 6.046875 145.566406 5.910156 144.183594 5.910156 Z M 144.183594 5.910156 " fill-opacity="1" fill-rule="nonzero"/></g><path fill="#ffffff" d="M 80.328125 54.339844 L 80.210938 54.355469 C 80.128906 54.375 79.707031 54.457031 79.246094 54.511719 L 79.234375 54.511719 C 77.242188 54.796875 74.8125 55.5625 72.589844 56.628906 C 70.648438 57.542969 69.71875 58.246094 68.027344 59.964844 C 64.757812 63.261719 63.195312 66.746094 62.632812 71.820312 C 61.871094 78.617188 64.289062 86.828125 68.546875 92.128906 L 68.550781 92.132812 C 68.910156 92.570312 69.226562 92.972656 69.457031 93.277344 L 69.453125 93.277344 C 69.019531 93.320312 68.417969 93.367188 67.738281 93.40625 C 64.410156 93.605469 62.078125 94.203125 58.84375 95.71875 C 52.601562 98.644531 48.175781 102.984375 45.085938 109.226562 L 45.082031 109.226562 C 42.894531 113.691406 42.351562 115.921875 42.320312 120.921875 C 42.292969 124.320312 42.40625 125.339844 42.949219 127.230469 C 43.628906 129.636719 45.117188 132.78125 46.503906 134.765625 L 46.507812 134.765625 C 46.984375 135.4375 47.445312 136.089844 47.550781 136.25 C 47.71875 136.5 48 136.511719 48.078125 136.511719 L 48.074219 136.511719 C 48.085938 136.511719 48.089844 136.511719 48.101562 136.511719 C 48.5625 136.511719 49.507812 136.160156 50.542969 135.675781 C 55.554688 133.402344 59.414062 132.484375 64.035156 132.484375 C 67.132812 132.484375 68.917969 132.722656 74.773438 133.996094 L 74.777344 133.996094 C 77.609375 134.59375 80.050781 134.910156 82.320312 134.910156 C 86.175781 134.910156 89.492188 133.996094 93.355469 132.074219 C 97.957031 129.800781 101.179688 126.886719 102.902344 123.414062 L 102.902344 123.410156 C 103.804688 121.578125 103.867188 121.246094 103.867188 118.296875 C 103.867188 115.550781 103.777344 114.953125 103.023438 113.183594 C 102.566406 112.09375 101.523438 110.265625 100.703125 109.105469 L 100.695312 109.09375 C 100.261719 108.496094 99.886719 107.96875 99.628906 107.589844 L 99.625 107.589844 C 99.738281 107.585938 99.863281 107.585938 100 107.585938 C 106.046875 107.585938 111.582031 102.714844 113.148438 96.144531 C 113.636719 94.128906 113.636719 90.203125 113.148438 88.167969 L 113.148438 88.164062 C 112.578125 85.820312 110.988281 82.757812 109.414062 80.984375 L 109.414062 80.980469 C 108.21875 79.640625 107.570312 79.214844 105.578125 78.417969 L 105.570312 78.414062 C 101.8125 76.960938 96.574219 74.132812 94.097656 72.257812 L 94.097656 72.253906 C 91.175781 70.074219 87.59375 66.351562 85.71875 63.523438 L 85.714844 63.519531 C 84.902344 62.332031 83.53125 59.835938 82.625 57.964844 L 82.625 57.960938 C 81.816406 56.324219 81.027344 54.871094 80.753906 54.550781 C 80.757812 54.550781 80.589844 54.339844 80.328125 54.339844 Z M 80.328125 54.339844 " fill-opacity="1" fill-rule="nonzero"/><g clip-path="url(#b7743e80f9)"><path fill="#ffffff" d="M 78.816406 165.613281 C 78.828125 165.628906 78.84375 165.648438 78.851562 165.664062 L 78.851562 165.660156 L 78.8125 165.613281 Z M 143.011719 259.742188 C 143.035156 259.761719 143.046875 259.773438 143.046875 259.773438 L 143.042969 259.773438 C 143.039062 259.773438 143.027344 259.761719 143.007812 259.742188 Z M 140.605469 265.765625 C 140.609375 265.765625 140.609375 265.765625 140.597656 265.765625 C 140.59375 265.765625 140.589844 265.765625 140.589844 265.765625 L 140.585938 265.765625 C 140.59375 265.765625 140.597656 265.765625 140.601562 265.765625 Z M 64.753906 138.734375 C 63.519531 138.734375 62.292969 138.8125 61.324219 138.976562 C 54.613281 140.109375 47.972656 144.738281 43.785156 151.117188 L 43.785156 151.121094 C 41.058594 155.332031 39.269531 160.128906 38.261719 165.910156 C 37.5625 170.007812 37.507812 177.941406 38.121094 182.683594 L 38.121094 182.6875 C 40.410156 199.6875 49.113281 211.691406 63.488281 217.574219 L 63.492188 217.578125 L 63.5 217.582031 L 63.5 217.578125 C 64.777344 218.085938 66.050781 218.574219 66.628906 218.738281 L 66.625 218.738281 C 66.472656 219.21875 66.167969 220.445312 65.878906 221.65625 C 65.367188 223.816406 65.285156 225.109375 65.257812 229.652344 L 65.257812 229.65625 C 65.257812 234.503906 65.339844 235.363281 65.9375 237.53125 C 66.753906 240.480469 68.074219 243.410156 69.578125 245.59375 L 69.578125 245.589844 C 70.722656 247.304688 73.527344 250.136719 75.207031 251.304688 C 76.894531 252.476562 80.046875 253.882812 82.414062 254.53125 C 84.078125 254.980469 86.511719 255.195312 88.96875 255.195312 C 91.390625 255.195312 93.875 254.984375 95.738281 254.5625 L 95.742188 254.5625 C 96.496094 254.378906 97.175781 254.234375 97.632812 254.136719 L 97.636719 254.136719 C 97.601562 254.660156 97.535156 255.492188 97.4375 256.441406 L 97.4375 256.445312 C 96.902344 262.222656 97.910156 268.289062 100.195312 273 C 102.695312 278.113281 107.464844 281.890625 112.976562 283.140625 L 112.984375 283.144531 C 114.195312 283.402344 115.195312 283.523438 116.804688 283.523438 C 117.492188 283.523438 118.296875 283.5 119.273438 283.457031 C 123.445312 283.316406 126.183594 282.753906 129.9375 281.324219 L 131.15625 280.875 L 132.761719 282.308594 C 137.5625 286.636719 142.140625 289.257812 147.265625 290.609375 L 147.265625 290.605469 C 148.683594 290.984375 150.3125 291.121094 152.898438 291.121094 L 152.894531 291.121094 C 153.023438 291.121094 153.164062 291.125 153.289062 291.125 C 157.179688 291.125 159.09375 290.695312 162.347656 289.136719 C 169.1875 285.914062 173.976562 279.871094 176.25 271.621094 C 176.796875 269.722656 176.878906 268.605469 176.878906 263.964844 C 176.90625 258.914062 176.851562 258.308594 176.113281 255.5625 C 175.136719 251.871094 173.539062 248.035156 171.691406 244.925781 L 171.6875 244.921875 C 170.105469 242.285156 166.871094 237.867188 165.742188 236.796875 L 165.726562 236.785156 L 165.363281 236.460938 L 166.804688 234.695312 C 171.527344 228.941406 174.390625 222.972656 175.542969 216.460938 L 175.542969 216.457031 C 176.160156 212.828125 175.96875 206.617188 175.089844 203.304688 L 175.089844 203.300781 C 173.042969 195.480469 168.683594 189.484375 162.667969 186.363281 C 160.09375 185.023438 157.378906 184.355469 154.640625 184.355469 C 150.886719 184.355469 147.121094 185.609375 143.625 188.058594 L 142.234375 189.011719 L 141.773438 188.652344 C 139.5625 186.890625 136.125 184.792969 134.1875 184.019531 C 132.144531 183.1875 131.632812 183.128906 128.554688 183.097656 L 128.550781 183.097656 C 125.460938 183.097656 125.007812 183.152344 123.4375 183.925781 L 123.4375 183.921875 C 120.707031 185.246094 118.777344 187.929688 117.976562 191.335938 C 117.511719 193.246094 117.519531 197.4375 117.96875 199.839844 L 117.96875 199.835938 C 118.109375 200.648438 118.175781 201.367188 118.171875 201.632812 C 117.964844 201.828125 117.335938 202.289062 116.523438 202.75 L 116.511719 202.757812 C 115.523438 203.351562 113.78125 204.585938 112.675781 205.578125 C 107.644531 209.910156 104.957031 215.097656 104.957031 220.664062 C 104.957031 225.144531 106.207031 228.0625 109.527344 231.410156 C 111.28125 233.195312 112.160156 233.808594 114.371094 234.855469 C 117.105469 236.167969 119.601562 236.972656 121.542969 237.117188 L 121.542969 237.113281 L 122.5625 237.199219 C 122.578125 237.199219 122.589844 237.199219 122.601562 237.199219 C 122.8125 237.199219 123 237.066406 123.066406 236.867188 L 123.898438 234.433594 C 126.210938 227.605469 130.167969 222.976562 136.242188 219.941406 C 137.929688 219.097656 140.515625 218.144531 141.957031 217.851562 L 141.964844 217.851562 L 142.367188 217.761719 L 142.734375 219.441406 L 142.734375 219.4375 C 142.941406 220.421875 143.242188 221.75 143.449219 222.660156 C 143.484375 222.816406 143.539062 223.0625 143.566406 223.179688 L 143.820312 224.324219 L 143.140625 224.503906 C 142.460938 224.683594 141.046875 225.25 139.976562 225.71875 L 139.964844 225.722656 C 130.679688 230.042969 127.136719 239.609375 131.375 248.722656 C 131.429688 248.839844 131.484375 248.953125 131.539062 249.070312 L 131.542969 249.070312 C 133.554688 253.15625 136.59375 256.214844 141.015625 258.609375 L 141.023438 258.613281 C 141.796875 259.019531 142.4375 259.382812 142.773438 259.585938 L 142.769531 259.585938 C 142.351562 260.734375 140.832031 264.625 140.378906 265.726562 C 140.128906 265.660156 139.707031 265.511719 139.179688 265.28125 C 131.566406 261.910156 125.175781 254.339844 123.496094 246.675781 L 123.027344 244.542969 C 122.984375 244.339844 122.816406 244.1875 122.609375 244.164062 L 121.117188 243.96875 L 121.113281 243.96875 C 114.558594 243.152344 107.511719 239.445312 103.613281 234.816406 C 101.804688 232.65625 99.570312 228.402344 98.871094 225.792969 L 98.867188 225.789062 C 98.253906 223.539062 98.035156 218.191406 98.464844 215.828125 L 98.464844 215.824219 C 99.601562 209.480469 103.210938 203.695312 108.648438 199.585938 L 110.171875 198.453125 C 110.292969 198.359375 110.367188 198.214844 110.367188 198.058594 L 110.367188 195.570312 C 110.367188 192.382812 110.957031 189.828125 112.421875 186.765625 C 113.417969 184.714844 114.023438 183.84375 115.925781 181.914062 L 118.277344 179.507812 C 118.40625 179.375 118.453125 179.183594 118.394531 179.007812 L 117.507812 176.378906 C 115.992188 171.722656 114.042969 168.601562 111.007812 165.851562 C 107.429688 162.613281 102.738281 161.003906 97.144531 161.003906 C 92.84375 161.003906 88.003906 161.953125 82.710938 163.84375 L 82.699219 163.847656 C 81.21875 164.382812 79.6875 164.960938 79.109375 165.238281 C 79.207031 164.929688 79.34375 164.546875 79.511719 164.132812 L 79.515625 164.117188 C 81.308594 159.273438 81.890625 153.746094 80.886719 150.015625 C 79.425781 144.460938 74.957031 140.347656 69.171875 139.121094 C 67.964844 138.863281 66.328125 138.734375 64.753906 138.734375 Z M 64.753906 138.734375 " fill-opacity="1" fill-rule="nonzero"/></g><g clip-path="url(#5c1e6ccc25)"><path fill="#ffffff" d="M 180.917969 433.066406 L 179.945312 12.6875 C 179.9375 9.976562 182.132812 7.773438 184.84375 7.765625 C 187.554688 7.761719 189.757812 9.953125 189.765625 12.664062 L 190.738281 433.042969 C 190.746094 435.757812 188.550781 437.960938 185.839844 437.96875 C 183.128906 437.972656 180.921875 435.78125 180.917969 433.066406 Z M 180.917969 433.066406 " fill-opacity="1" fill-rule="nonzero"/></g><path fill="#ffffff" d="M 185.488281 261.253906 C 182.785156 261.253906 180.589844 263.449219 180.589844 266.152344 L 180.589844 318.6875 L 169.117188 307.214844 C 164.503906 302.742188 157.707031 309.507812 162.191406 314.136719 C 162.191406 314.136719 182.027344 333.972656 182.027344 333.972656 C 183.878906 335.894531 187.097656 335.832031 188.953125 333.972656 C 188.953125 333.972656 208.785156 314.140625 208.785156 314.140625 C 213.253906 309.515625 206.496094 302.734375 201.863281 307.214844 C 201.863281 307.214844 190.386719 318.6875 190.386719 318.6875 L 190.386719 266.152344 C 190.386719 263.449219 188.191406 261.253906 185.488281 261.253906 Z M 185.488281 261.253906 " fill-opacity="1" fill-rule="nonzero"/><g clip-path="url(#32405596c4)"><path fill="#ffffff" d="M 145.820312 325.613281 C 143.113281 325.613281 140.921875 327.804688 140.921875 330.511719 L 140.921875 337.734375 C 140.921875 351.371094 152.015625 362.46875 165.652344 362.46875 L 205.324219 362.46875 C 218.960938 362.46875 230.058594 351.371094 230.058594 337.734375 L 230.058594 330.511719 C 230.058594 327.804688 227.863281 325.613281 225.160156 325.613281 C 222.457031 325.613281 220.261719 327.804688 220.261719 330.511719 L 220.261719 337.734375 C 220.261719 345.972656 213.558594 352.675781 205.324219 352.675781 L 165.652344 352.675781 C 157.417969 352.675781 150.714844 345.972656 150.714844 337.734375 L 150.714844 330.511719 C 150.714844 327.804688 148.523438 325.613281 145.820312 325.613281 Z M 145.820312 325.613281 " fill-opacity="1" fill-rule="nonzero"/></g></svg>